<?xml version="1.0" standalone="no"?>
<!DOCTYPE svg PUBLIC "-//W3C//DTD SVG 20010904//EN"
 "http://www.w3.org/TR/2001/REC-SVG-20010904/DTD/svg10.dtd">
<svg version="1.0" xmlns="http://www.w3.org/2000/svg"
 width="400.000000pt" height="400.000000pt" viewBox="0 0 400.000000 400.000000"
 preserveAspectRatio="xMidYMid meet">

<g transform="translate(0.000000,400.000000) scale(0.100000,-0.100000)"
fill="#000000" stroke="none">
<path d="M3979 3393 c-23 -30 -39 -62 -39 -80 0 -30 -36 -78 -69 -95 -18 -8
-32 -18 -32 -22 2 -20 0 -27 -7 -22 -5 3 -23 -8 -41 -24 -21 -20 -27 -30 -17
-30 9 0 16 -3 16 -7 0 -5 28 -7 63 -5 59 3 64 2 77 -22 9 -19 22 -26 42 -26
l28 0 0 175 c0 96 -2 175 -3 175 -2 0 -10 -8 -18 -17z"/>
<path d="M3353 3209 c-5 -5 -8 -21 -5 -34 4 -23 6 -24 36 -11 17 7 36 11 42 9
6 -2 14 3 18 12 3 9 2 14 -3 11 -4 -3 -17 1 -27 9 -23 17 -46 19 -61 4z"/>
<path d="M1152 3091 c-8 -4 -41 -9 -75 -9 -34 -1 -79 -4 -102 -9 -22 -4 -83
-7 -135 -8 -71 0 -94 -3 -92 -12 2 -13 -10 -17 -35 -14 -8 1 -10 -5 -7 -14 3
-8 1 -15 -4 -15 -6 0 -14 -10 -18 -22 -3 -12 -15 -31 -25 -42 -22 -22 -25 -73
-7 -111 9 -19 9 -28 0 -37 -7 -7 -12 -19 -12 -29 0 -9 -11 -27 -23 -40 -13
-13 -29 -38 -34 -55 -10 -27 -8 -34 10 -52 18 -18 19 -25 9 -47 -12 -26 -9
-61 8 -100 5 -11 11 -33 12 -49 3 -24 8 -29 35 -32 18 -2 35 1 38 6 3 6 16 10
28 9 12 0 16 -3 10 -6 -7 -2 -13 -11 -13 -19 0 -8 -10 -19 -22 -25 -17 -7 -24
-20 -26 -46 l-2 -36 38 7 c22 3 65 18 96 32 33 15 68 24 82 21 13 -2 27 0 30
5 10 16 48 26 60 17 8 -7 14 -1 18 16 4 17 13 25 27 25 16 0 20 5 16 19 -4 16
3 22 37 33 30 10 41 18 41 33 0 17 -6 19 -32 17 -44 -5 -42 14 2 35 19 9 35
20 35 25 0 4 17 8 38 8 20 0 45 7 55 14 10 8 53 22 95 32 91 21 109 35 94 69
-8 18 -22 26 -52 31 -24 4 -40 12 -40 20 0 14 -12 18 -37 15 -7 -1 -13 5 -13
14 0 8 4 15 8 15 15 0 11 58 -4 64 -18 7 -18 40 1 56 8 7 15 20 15 28 0 9 18
34 39 57 21 22 42 50 46 63 6 21 4 22 -57 22 -35 1 -81 7 -103 15 -22 8 -40
15 -40 15 0 0 -6 -4 -13 -9z m158 -397 c0 -8 -7 -17 -15 -20 -14 -6 -14 -8 1
-19 14 -10 15 -13 2 -17 -18 -7 -32 1 -41 25 -3 9 -16 17 -28 17 -18 0 -20 2
-8 16 8 10 21 13 36 9 13 -3 23 -1 23 4 0 6 7 8 15 5 8 -4 15 -13 15 -20z
m-110 -24 c0 -21 -15 -27 -25 -10 -7 12 2 30 16 30 5 0 9 -9 9 -20z m-400
-260 c0 -5 -7 -10 -16 -10 -8 0 -12 5 -9 10 3 6 10 10 16 10 5 0 9 -4 9 -10z
m-80 -90 c0 -5 -2 -10 -4 -10 -3 0 -8 5 -11 10 -3 6 -1 10 4 10 6 0 11 -4 11
-10z"/>
<path d="M3152 3023 c-13 -7 -35 -13 -48 -13 -13 0 -24 -4 -24 -10 0 -5 -11
-12 -25 -16 -13 -3 -27 -15 -31 -26 -7 -24 4 -38 15 -19 7 11 12 8 21 -10 17
-32 26 -37 81 -44 80 -11 151 11 211 65 l53 47 -48 22 c-53 24 -161 26 -205 4z"/>
<path d="M3847 3006 c-40 -40 -284 -59 -360 -28 -34 14 -39 14 -55 -1 -10 -10
-23 -17 -29 -17 -6 0 -14 -7 -17 -16 -8 -21 -8 -24 5 -24 15 0 39 -26 39 -44
0 -30 20 -26 55 13 37 40 70 56 81 40 3 -6 1 -15 -4 -22 -5 -7 -12 -25 -16
-40 -6 -24 -3 -30 14 -34 11 -3 20 -9 20 -13 0 -12 69 24 70 36 0 14 35 54 46
54 18 0 45 -41 42 -63 -2 -16 3 -23 17 -25 24 -3 88 35 80 47 -3 5 -1 12 4 15
5 3 7 15 4 26 -3 11 2 36 12 55 20 43 16 65 -8 41z"/>
<path d="M2968 2888 c-31 -25 -52 -33 -115 -42 -98 -14 -107 -32 -28 -62 46
-18 57 -19 66 -8 6 8 17 14 24 14 8 0 23 16 35 35 12 19 26 35 31 35 6 0 7 5
4 10 -3 6 1 10 9 10 9 0 16 9 16 20 0 25 3 25 -42 -12z"/>
<path d="M3340 2900 c0 -5 4 -10 9 -10 6 0 13 5 16 10 3 6 -1 10 -9 10 -9 0
-16 -4 -16 -10z"/>
<path d="M3660 2840 c-14 -27 -11 -31 18 -23 14 3 22 12 20 21 -5 24 -26 25
-38 2z"/>
<path d="M1866 2815 c-9 -13 -26 -25 -38 -27 -36 -5 -27 -31 17 -52 57 -27
165 -50 165 -35 0 5 9 9 20 9 11 0 20 -6 20 -14 0 -22 29 -46 55 -46 13 0 25
-4 27 -10 3 -11 95 -31 150 -32 27 0 35 -4 31 -14 -3 -10 3 -14 18 -14 13 0
31 -4 38 -9 11 -7 21 -2 38 17 17 20 25 24 34 15 9 -9 9 -16 -1 -28 -10 -12
-10 -15 1 -15 9 -1 8 -4 -4 -11 -9 -6 -15 -14 -12 -20 8 -13 49 -11 63 3 8 8
15 8 26 -1 8 -7 20 -10 26 -6 9 6 51 11 125 15 6 0 23 -1 38 -4 18 -3 30 1 34
10 3 8 16 14 30 14 23 0 23 1 9 22 -9 12 -16 30 -16 40 0 28 -15 30 -84 11
-75 -20 -109 -13 -135 27 -15 22 -15 24 2 17 9 -3 17 -3 17 2 0 4 17 13 38 19
35 11 70 47 57 60 -3 3 -20 6 -38 6 -25 1 -33 6 -35 23 -3 21 -7 22 -63 18
-46 -3 -59 -1 -59 10 0 26 -17 25 -74 -4 -48 -24 -68 -28 -119 -26 -34 2 -65
-1 -68 -7 -7 -11 -37 3 -82 40 -35 27 -68 28 -85 2 -15 -25 -26 -25 -49 -2
-11 12 -34 19 -60 20 -33 1 -44 -4 -57 -23z m454 -69 c0 3 7 1 15 -6 9 -7 15
-8 15 -2 0 16 28 22 42 8 7 -7 21 -17 30 -22 12 -6 1 -9 -36 -8 -39 0 -61 7
-82 23 -21 16 -22 19 -6 11 12 -6 22 -8 22 -4z"/>
<path d="M2979 2832 c-13 -6 -10 -13 18 -41 34 -35 43 -27 23 23 -10 27 -15
29 -41 18z"/>
<path d="M3312 2672 c-13 -2 -26 -10 -29 -18 -3 -8 -13 -14 -23 -14 -10 0 -23
-13 -31 -31 -12 -31 -12 -31 -76 -26 -35 2 -66 1 -69 -4 -3 -5 3 -9 13 -9 10
0 25 -5 33 -11 13 -9 12 -10 -2 -5 -11 3 -15 1 -12 -8 4 -9 -7 -16 -33 -21
-20 -4 -43 -15 -50 -25 -13 -19 -53 -34 -53 -19 0 24 -29 -7 -35 -37 -3 -19
-14 -38 -23 -41 -9 -4 -20 -11 -24 -17 -4 -6 -11 -11 -16 -11 -5 0 -16 -8 -26
-17 -10 -10 -31 -18 -47 -18 -16 0 -29 -4 -29 -9 0 -5 -15 -13 -32 -16 -18 -4
-36 -12 -40 -18 -10 -16 14 -47 37 -47 18 -1 18 -2 -4 -14 -24 -13 -24 -13 13
-20 20 -4 36 -12 36 -17 0 -6 15 -10 33 -8 17 1 40 -2 50 -6 23 -10 83 2 101
20 23 24 59 33 106 29 109 -11 166 2 194 45 16 24 17 24 13 4 -3 -13 -1 -23 4
-23 5 0 9 5 9 10 0 6 11 10 25 10 14 0 24 3 23 8 -2 4 2 8 7 10 6 2 17 10 26
18 18 16 128 84 137 84 2 0 10 -7 17 -16 9 -13 16 -14 33 -5 11 6 29 11 40 11
24 0 94 -74 87 -93 -3 -7 6 -34 20 -59 29 -51 55 -69 55 -38 0 21 24 27 35 10
4 -7 12 -7 25 0 25 13 30 13 30 -5 0 -8 9 -15 20 -15 11 0 20 6 20 13 0 14 60
47 85 47 13 0 15 30 15 191 0 170 -2 190 -16 185 -9 -3 -22 -6 -30 -6 -8 0
-14 -8 -14 -18 0 -9 -14 -30 -31 -47 l-32 -29 -23 27 c-13 15 -29 26 -36 25
-7 -2 -14 7 -16 20 -4 26 -32 30 -33 5 0 -11 -3 -13 -6 -5 -7 19 -47 14 -66
-8 -10 -12 -15 -25 -13 -29 8 -12 -56 -77 -84 -85 -18 -5 -21 -5 -10 3 17 12
15 15 -28 29 -27 9 -36 8 -52 -6 -19 -16 -19 -17 -3 -24 10 -4 -7 -7 -39 -7
-58 -1 -58 -1 -58 29 0 25 4 30 24 30 37 0 86 21 86 37 0 18 -52 83 -67 83 -6
0 -13 4 -15 8 -4 10 -93 20 -126 14z m56 -108 c15 -15 14 -16 -5 -10 -12 4
-24 2 -28 -4 -3 -6 -11 -8 -16 -4 -6 4 -6 11 2 20 15 18 27 18 47 -2z m32 -94
c0 -5 -9 -10 -20 -10 -11 0 -20 5 -20 10 0 6 9 10 20 10 11 0 20 -4 20 -10z
m-640 -190 c0 -5 -9 -10 -20 -10 -11 0 -20 5 -20 10 0 6 9 10 20 10 11 0 20
-4 20 -10z"/>
<path d="M1425 2600 c-3 -5 -1 -10 4 -10 6 0 11 5 11 10 0 6 -2 10 -4 10 -3 0
-8 -4 -11 -10z"/>
<path d="M1325 2549 c-10 -14 -1 -21 19 -13 9 3 13 10 10 15 -7 12 -21 11 -29
-2z"/>
<path d="M1387 2456 c-18 -18 -48 -39 -67 -46 -19 -8 -48 -24 -65 -36 -20 -14
-42 -21 -64 -19 -26 1 -41 -4 -57 -21 -11 -13 -26 -24 -31 -24 -6 0 -16 -13
-22 -28 -7 -16 -25 -36 -40 -45 -27 -16 -29 -16 -38 6 -10 22 -11 22 -44 -14
-19 -20 -42 -39 -51 -42 -10 -4 -18 -14 -18 -24 0 -13 -3 -14 -8 -6 -6 10 -20
7 -58 -11 -59 -29 -121 -41 -140 -25 -8 7 -27 8 -55 2 -45 -9 -66 -33 -29 -33
17 0 21 -5 17 -19 -5 -19 3 -22 78 -23 17 -1 24 -3 17 -5 -10 -4 -10 -8 -1
-19 15 -18 -2 -18 -27 1 -29 22 -57 18 -102 -15 -23 -16 -46 -30 -51 -30 -5 0
-12 -6 -15 -12 -5 -10 -7 -10 -12 -1 -3 7 -12 9 -20 6 -8 -3 -21 0 -29 7 -13
11 -14 10 -9 -4 5 -14 3 -15 -19 -7 -20 8 -36 5 -76 -15 -28 -13 -50 -27 -49
-32 4 -13 -23 -56 -60 -94 -28 -30 -31 -36 -14 -31 13 3 28 -1 37 -11 11 -10
25 -14 41 -10 18 5 24 2 24 -10 0 -9 8 -16 20 -16 26 0 26 -30 0 -37 -11 -3
-20 -11 -20 -19 0 -7 -6 -11 -13 -8 -7 2 -25 -4 -39 -16 -31 -24 -27 -55 8
-83 13 -10 25 -26 29 -36 4 -13 12 -17 31 -13 17 3 29 -1 38 -13 7 -10 28 -19
47 -20 19 -1 45 -7 59 -12 31 -13 128 -14 136 -2 3 5 20 9 39 9 19 0 37 5 40
10 4 6 14 1 26 -12 18 -22 20 -22 33 -5 7 9 19 17 25 17 7 0 10 4 6 10 -6 10
69 50 97 50 10 0 18 -4 18 -10 0 -5 7 -10 15 -10 8 0 30 -8 49 -18 28 -13 36
-23 36 -45 0 -15 7 -30 15 -33 13 -5 12 -10 -5 -34 -11 -15 -20 -34 -21 -42
-1 -23 -104 -97 -127 -91 -16 4 -34 -8 -73 -48 -42 -43 -53 -61 -57 -96 -3
-28 -1 -43 7 -43 6 0 11 -4 11 -10 0 -16 -35 -47 -49 -42 -9 3 -11 -2 -6 -17
5 -16 1 -23 -18 -30 -14 -6 -28 -15 -32 -21 -3 -5 -11 -8 -16 -5 -5 4 -14 3
-21 -1 -8 -5 -6 -10 8 -15 16 -6 14 -8 -13 -14 -20 -5 -34 -15 -38 -29 -4 -13
-8 -16 -12 -8 -6 14 -49 16 -58 2 -10 -16 -25 -1 -25 26 0 15 -6 24 -15 24
-11 0 -15 11 -15 40 0 33 -3 40 -20 40 -17 0 -20 -7 -20 -40 0 -33 -3 -40 -20
-40 -17 0 -20 7 -20 44 0 36 5 49 25 64 23 19 35 52 17 52 -4 0 -19 11 -34 25
-22 20 -37 24 -100 26 -40 1 -83 -1 -95 -5 -14 -5 -23 -3 -23 3 0 7 -30 11
-80 11 l-80 0 0 -200 c0 -145 3 -200 12 -200 6 0 27 12 45 26 29 22 42 26 80
21 50 -5 97 -46 109 -93 4 -14 17 -36 30 -49 28 -28 29 -41 9 -82 -20 -40 -50
-66 -72 -61 -13 3 -23 -7 -35 -32 -10 -19 -17 -42 -18 -50 0 -9 -18 -33 -40
-54 -47 -44 -49 -58 -15 -76 21 -11 27 -11 43 4 11 9 26 14 36 10 11 -4 25 2
38 16 18 19 28 22 73 17 46 -5 55 -2 79 19 14 14 26 34 26 44 0 11 4 20 10 20
5 0 18 10 29 21 22 24 103 31 143 12 21 -10 68 -21 155 -38 29 -6 31 -8 20
-26 -10 -17 -9 -22 6 -30 9 -6 17 -21 17 -34 0 -25 1 -26 76 -41 12 -2 27 2
33 10 8 10 29 12 72 10 l61 -5 -7 31 c-6 28 -5 30 22 30 20 0 31 -7 38 -22 8
-18 17 -22 44 -20 18 1 39 -2 47 -8 17 -15 93 -20 101 -7 3 5 -1 13 -8 18 -10
7 -5 8 13 5 21 -3 33 2 47 20 10 13 22 24 26 24 10 0 35 27 35 39 0 6 8 11 18
11 22 0 79 27 88 41 3 5 14 7 25 4 14 -5 31 3 55 24 19 17 32 31 29 31 -4 0 1
7 9 16 16 16 41 10 31 -7 -4 -5 -1 -9 4 -9 6 0 11 5 11 10 0 6 8 10 18 9 10 0
12 -3 5 -6 -7 -2 -13 -20 -13 -40 0 -30 3 -34 22 -31 13 2 29 15 36 31 20 41
30 33 24 -19 -4 -42 -2 -48 28 -76 27 -24 39 -29 63 -24 16 3 35 6 41 6 7 0
23 10 36 22 25 23 49 26 143 15 34 -4 51 -1 62 10 26 26 35 50 29 81 -4 17 -1
32 5 36 6 4 11 16 11 27 0 17 6 20 43 17 32 -2 46 2 58 16 15 18 17 18 40 3
26 -19 79 -23 79 -7 0 6 10 15 23 21 12 5 32 24 44 41 21 30 24 31 88 29 50
-2 65 1 63 11 -2 9 8 13 30 13 18 0 36 5 40 12 4 6 22 11 40 11 20 -1 41 7 55
19 12 11 41 23 65 26 23 3 54 13 69 24 14 10 40 26 57 35 30 17 31 16 54 -8
12 -14 22 -35 22 -47 0 -14 11 -29 29 -40 26 -15 28 -19 18 -42 -7 -14 -18
-23 -25 -20 -7 3 -11 1 -8 -4 3 -5 -6 -20 -19 -35 -25 -27 -29 -39 -40 -114
-7 -52 17 -69 46 -34 20 25 54 29 63 7 8 -22 27 -18 66 14 57 48 82 75 71 79
-17 6 -13 37 7 55 25 23 34 21 62 -8 15 -16 30 -23 42 -19 12 3 18 0 18 -10 0
-22 17 -20 30 4 6 11 20 20 30 20 11 0 20 5 20 10 0 6 18 10 40 10 26 0 40 5
40 13 0 16 87 42 128 38 17 -2 15 -31 -5 -53 -14 -16 -15 -25 -6 -58 9 -34 7
-42 -7 -55 -27 -25 -31 -54 -9 -65 10 -6 19 -15 19 -21 0 -5 14 -23 30 -39 17
-16 30 -38 30 -49 0 -21 26 -36 36 -20 3 6 12 8 19 5 20 -7 34 15 36 59 1 22
8 47 15 55 6 8 14 24 16 35 2 11 17 26 33 34 45 21 65 42 65 68 0 14 6 23 16
23 9 0 14 -6 11 -13 -3 -8 7 -21 24 -31 l28 -17 0 528 c0 290 -3 522 -6 515
-2 -6 -8 -10 -13 -7 -4 2 -10 -9 -14 -26 -4 -19 -13 -33 -26 -36 -22 -6 -27
-23 -7 -23 26 -1 -60 -39 -90 -40 -17 0 -35 -4 -38 -10 -12 -20 -69 -27 -109
-13 -21 7 -49 13 -63 13 -13 0 -22 4 -18 9 3 5 1 12 -5 16 -14 9 -12 45 3 45
25 1 50 28 41 47 -13 30 -12 52 3 65 8 6 13 7 12 2 -3 -20 2 -28 10 -16 7 11
11 11 24 -2 18 -18 53 -21 62 -6 3 6 3 20 0 31 -5 16 -13 20 -31 16 -30 -5
-42 9 -15 18 11 3 23 15 26 26 4 12 15 19 30 19 18 0 25 7 30 33 4 17 18 51
31 74 33 59 24 83 -31 83 -37 0 -44 3 -47 22 -3 23 -23 33 -90 43 -37 6 -58
32 -36 46 9 6 7 10 -7 15 -11 4 -23 12 -26 17 -4 5 -16 -1 -27 -14 -20 -21
-25 -21 -63 -10 -64 19 -493 18 -539 -1 -50 -21 -208 -15 -225 9 -17 23 -106
27 -97 5 3 -9 1 -13 -5 -9 -15 9 -44 -3 -37 -14 10 -16 -8 -9 -21 8 -7 9 -30
18 -51 20 -21 2 -43 8 -49 14 -5 5 -14 9 -20 9 -5 0 -3 -5 5 -11 11 -8 8 -9
-15 -4 -16 4 -47 7 -67 6 -21 0 -38 4 -38 9 0 6 6 10 14 10 8 0 17 14 21 30 7
31 38 56 55 45 6 -4 13 1 16 9 3 9 12 16 20 16 8 0 14 6 14 13 0 8 -19 12 -57
13 -74 1 -121 8 -158 23 -17 7 -31 8 -33 3 -3 -11 -52 8 -52 21 0 6 -33 4
-112 -8 -16 -3 -28 0 -28 5 0 6 7 10 16 10 13 0 14 3 4 15 -22 27 -75 34 -178
24 -70 -7 -110 -6 -144 3 -47 12 -60 23 -35 31 6 2 1 2 -13 0 -15 -2 -45 7
-70 21 -163 92 -191 96 -243 42z m-547 -336 c0 -5 -4 -10 -10 -10 -5 0 -10 5
-10 10 0 6 5 10 10 10 6 0 10 -4 10 -10z m1557 -16 c-3 -3 -12 -4 -19 -1 -8 3
-5 6 6 6 11 1 17 -2 13 -5z m867 -786 c-3 -12 -7 -34 -8 -49 -2 -35 -53 -80
-67 -58 -20 30 -22 61 -5 71 9 5 16 20 16 33 0 22 4 25 36 25 32 0 35 -2 28
-22z m-1384 -510 c0 -9 3 -9 12 0 19 19 44 14 58 -14 14 -24 12 -27 -34 -68
-39 -34 -47 -46 -42 -64 10 -30 -1 -45 -24 -32 -15 8 -20 6 -25 -11 -16 -49
-124 -65 -119 -17 1 13 3 24 4 26 2 1 3 8 4 15 0 6 13 13 29 15 15 2 25 8 22
13 -8 12 -52 12 -76 -1 -15 -8 -19 -7 -19 3 0 8 8 18 18 21 30 11 63 33 63 42
0 5 11 8 24 6 19 -3 25 1 25 15 0 10 6 25 13 34 20 27 67 38 67 17z"/>
<path d="M1800 669 c0 -5 5 -7 10 -4 6 3 10 8 10 11 0 2 -4 4 -10 4 -5 0 -10
-5 -10 -11z"/>
<path d="M2599 2288 c0 -7 -2 -25 -4 -40 -2 -16 1 -28 6 -28 14 0 33 46 26 64
-8 19 -27 21 -28 4z"/>
<path d="M2513 2275 c-3 -9 -3 -19 1 -22 7 -7 36 16 36 28 0 15 -30 10 -37 -6z"/>
<path d="M2888 407 c-12 -12 -62 -29 -91 -31 -4 -1 -14 -14 -22 -29 -13 -26
-13 -28 3 -23 9 3 30 -1 46 -9 15 -8 33 -15 38 -15 15 0 40 29 34 39 -9 14 5
41 21 41 17 0 14 31 -3 37 -7 2 -18 -3 -26 -10z"/>
<path d="M730 330 c-13 -8 -12 -10 3 -10 9 0 17 5 17 10 0 12 -1 12 -20 0z"/>
<path d="M668 313 c7 -3 16 -2 19 1 4 3 -2 6 -13 5 -11 0 -14 -3 -6 -6z"/>
<path d="M562 280 c0 -14 2 -19 5 -12 2 6 2 18 0 25 -3 6 -5 1 -5 -13z"/>
<path d="M497 258 c-18 -9 -18 -11 3 -25 26 -18 33 -13 23 15 -6 17 -12 19
-26 10z"/>
<path d="M1739 119 c-10 -19 -59 -39 -95 -39 -13 0 -24 -4 -24 -10 0 -5 -7
-10 -15 -10 -23 0 -84 -34 -85 -47 0 -10 33 -13 134 -13 l134 0 4 40 c2 22 -1
42 -7 44 -6 2 -6 11 3 25 17 29 16 31 -14 29 -14 -2 -30 -10 -35 -19z"/>
<path d="M386 101 c-4 -7 -5 -15 -2 -18 9 -9 19 4 14 18 -4 11 -6 11 -12 0z"/>
<path d="M0 15 c0 -8 7 -15 16 -15 14 0 14 3 4 15 -16 19 -20 19 -20 0z"/>
<path d="M225 16 c-19 -14 -13 -15 70 -15 67 0 85 2 72 10 -33 19 -120 22
-142 5z"/>
<path d="M860 10 c0 -5 5 -10 10 -10 6 0 10 5 10 10 0 6 -4 10 -10 10 -5 0
-10 -4 -10 -10z"/>
<path d="M418 3 c12 -2 32 -2 45 0 12 2 2 4 -23 4 -25 0 -35 -2 -22 -4z"/>
</g>
</svg>
